<?xml version="1.0" encoding="UTF-8" standalone="no"?>
<svg
   xmlns:dc="http://purl.org/dc/elements/1.1/"
   xmlns:cc="http://creativecommons.org/ns#"
   xmlns:rdf="http://www.w3.org/1999/02/22-rdf-syntax-ns#"
   xmlns:svg="http://www.w3.org/2000/svg"
   xmlns="http://www.w3.org/2000/svg"
   xmlns:sodipodi="http://sodipodi.sourceforge.net/DTD/sodipodi-0.dtd"
   xmlns:inkscape="http://www.inkscape.org/namespaces/inkscape"
   id="svg2"
   height="75"
   width="70"
   version="1.1"
   viewBox="0 0 70 75"
   inkscape:version="0.91 r13725"
   sodipodi:docname="logo.svg">
  <metadata
     id="metadata22">
    <rdf:RDF>
      <cc:Work
         rdf:about="">
        <dc:format>image/svg+xml</dc:format>
        <dc:type
           rdf:resource="http://purl.org/dc/dcmitype/StillImage" />
      </cc:Work>
    </rdf:RDF>
  </metadata>
  <defs
     id="defs20" />
  <sodipodi:namedview
     pagecolor="#ffffff"
     bordercolor="#666666"
     borderopacity="1"
     objecttolerance="10"
     gridtolerance="10"
     guidetolerance="10"
     inkscape:pageopacity="0"
     inkscape:pageshadow="2"
     inkscape:window-width="771"
     inkscape:window-height="480"
     id="namedview18"
     showgrid="false"
     inkscape:zoom="3.1466667"
     inkscape:cx="35"
     inkscape:cy="37.5"
     inkscape:window-x="0"
     inkscape:window-y="0"
     inkscape:window-maximized="0"
     inkscape:current-layer="g8" />
  <g
     id="layer1"
     transform="translate(0 -977.36)">
    <g
       id="g5086"
       transform="matrix(.72849 .68506 -.68506 .72849 18.152 353.99)">
      <g
         id="g5106"
         fill-rule="evenodd"
         transform="translate(-.0000049425)"
         stroke="#fff"
         stroke-width="1px"
         fill="#405d5f">
        <path
           id="path5066"
           d="m453.57 457.54s-5-1.0714-10.357 7.3214c-5.3572 8.3929-2.5 13.929-2.5 13.929s2.5-4.2857 5.5357-6.0714 8.2143-2.8571 8.2143-2.8571z" />
        <path
           id="path5070"
           d="m474.64 457.54s5-1.0714 10.357 7.3214c5.3572 8.3929 2.5 13.929 2.5 13.929s-2.5-4.2857-5.5357-6.0714-8.2143-2.8571-8.2143-2.8571z" />
      </g>
      <g
         id="g8">
        <ellipse
           id="path5074"
           rx="7.8571"
           ry="11.786"
           cy="473.61"
           cx="465"
           fill="#ea5414" />
        <ellipse
           id="path5072"
           rx="4.4643"
           ry="4.6429"
           cy="474.5"
           cx="464.46"
           fill="#f7b52c" />
        <path
           id="path5059"
           d="m464.11 420.22s-7.7045 7.0293-10 10c-3.0357 3.9286-4.2866 8.2146-3.5723 15.357 0.71428 7.1429 3.0371 27.678 3.0371 27.678h10.535 10.535s2.3209-20.535 3.0352-27.678c0.71429-7.1428-0.5346-11.429-3.5703-15.357-2.2955-2.9707-10-10-10-10z"
           fill-rule="evenodd"
           stroke="#000"
           stroke-width="1px"
           fill="#d8f3f7"
           style="stroke:none" />
        <circle
           id="path5064"
           stroke-width="1.5"
           stroke-linecap="round"
           stroke="#000"
           cy="442.5"
           cx="464.11"
           r="7.3214"
           fill="#fff" />
      </g>
      <path
         id="path5076"
         d="m464.29 500.22v19.464"
         stroke="#fff"
         stroke-width="1px"
         fill="none" />
      <path
         id="path5078"
         d="m468.39 507.72v10"
         stroke="#fff"
         stroke-width="1px"
         fill="none" />
      <text
         id="text5082"
         style="word-spacing:0px;letter-spacing:0px"
         line-height="125%"
         font-size="8.6142px"
         y="465.23779"
         x="461.28842"
         font-family="sans-serif"
         xml:space="preserve"
         fill="#000000"><tspan
           id="tspan5084"
           font-weight="bold"
           y="465.23779"
           x="461.28842"
           font-family="Arial">S</tspan></text>
    </g>
  </g>
</svg>
